#!OML:ASF F:\VICON\USERDATA\INSTALL\rory3\rory3.ASF
:FULLY-SPECIFIED
:DEGREES
113
root 1.09789 14.4741 -3.14246 10.7993 2.64204 4.46092
lowerback 31.3307 -0.441647 -2.54493
upperback 4.80969 -1.46686 -0.733467
thorax -10.9028 -0.582283 1.13435
lowerneck -14.2378 -2.28721 -7.23006
upperneck -15.1165 -1.66025 6.1794
head -2.4043 -0.537988 3.29553
rclavicle 1.24737e-014 8.24956e-015
rhumerus -32.996 6.10213 -76.2873
rradius 64.2362
rwrist 9.26678
rhand -42.2505 1.04912
rfingers 7.12502
rthumb -15.1364 -28.3774
lclavicle 1.24737e-014 8.24956e-015
lhumerus -38.5235 -21.2706 80.5511
lradius 63.2477
lwrist 19.359
lhand -30.5652 21.2424
lfingers 7.12502
lthumb -3.86323 51.1872
rfemur -63.0233 -10.4977 13.585
rtibia 95.7357
rfoot -35.9728 -6.13968
rtoes -13.5412
lfemur -59.5918 1.42948 -26.4692
ltibia 90.4411
lfoot -35.9034 1.44488
ltoes -7.92884
114
root 1.08586 14.3816 -3.13583 10.892 2.81505 4.60189
lowerback 31.7068 -0.446844 -2.66234
upperback 4.84334 -1.51878 -0.715596
thorax -11.0152 -0.59887 1.23908
lowerneck -14.4497 -2.29593 -7.23321
upperneck -15.3056 -1.65249 6.1553
head -2.43694 -0.528699 3.28944
rclavicle -4.27387e-015 9.93923e-017
rhumerus -33.9431 5.94846 -76.0918
rradius 64.8307
rwrist 8.88401
rhand -42.5067 1.51495
rfingers 7.12502
rthumb -15.3833 -27.8927
lclavicle -4.27387e-015 9.93923e-017
lhumerus -39.5536 -21.5632 80.7503
lradius 64.257
lwrist 19.6678
lhand -31.0736 21.3379
lfingers 7.12502
lthumb -4.35423 51.2731
rfemur -63.8227 -10.9786 13.4565
rtibia 96.8977
rfoot -35.8481 -5.7574
rtoes -14.095
lfemur -60.2303 1.33742 -26.5786
ltibia 91.456
lfoot -36.0813 1.24082
ltoes -7.81309
115
root 1.07278 14.2819 -3.13177 11.0034 3.02445 4.73001
lowerback 32.0668 -0.479977 -2.72973
upperback 4.8726 -1.59145 -0.712845
thorax -11.1258 -0.626501 1.30878
lowerneck -14.8012 -2.33069 -7.13967
upperneck -15.3436 -1.69084 6.08443
head -2.39097 -0.546609 3.24241
rclavicle -3.97569e-016 1.98785e-016
rhumerus -35.0227 5.84797 -75.9644
rradius 65.6467
rwrist 8.2748
rhand -42.6503 0.533128
rfingers 7.12502
rthumb -15.5216 -28.8639
lclavicle -3.97569e-016 1.98785e-016
lhumerus -40.7187 -21.6968 80.972
lradius 65.3483
lwrist 19.7966
lhand -31.4855 21.503
lfingers 7.12502
lthumb -4.75194 51.4297
rfemur -64.5954 -11.5063 13.3098
rtibia 98.1061
rfoot -35.8524 -4.96035
rtoes -13.6109
lfemur -60.9617 1.26477 -26.6884
ltibia 92.5228
lfoot -36.1891 1.09796
ltoes -7.98461
116
root 1.05912 14.1822 -3.1316 11.1147 3.17345 4.6611
lowerback 32.5097 -0.462392 -2.68833
upperback 4.87152 -1.55632 -0.624947
thorax -11.3077 -0.606617 1.37175
lowerneck -15.3352 -2.41006 -6.94677
upperneck -15.2265 -1.80637 5.87655
head -2.25759 -0.606067 3.12067
rclavicle 0 1.81888e-014
rhumerus -36.1553 5.71654 -75.7545
rradius 66.4647
rwrist 7.39956
rhand -42.7549 0.24101
rfingers 7.12502
rthumb -15.6223 -29.1482
lclavicle 0 1.81888e-014
lhumerus -41.9081 -21.8575 81.3356
lradius 66.3608
lwrist 19.9759
lhand -32.0281 21.3769
lfingers 7.12502
lthumb -5.27584 51.2912
rfemur -65.4361 -11.8858 13.4077
rtibia 99.3221
rfoot -35.8372 -4.3824
rtoes -13.5773
lfemur -61.8285 1.38705 -26.5898
ltibia 93.687
lfoot -36.1625 0.761167
ltoes -8.16817
117
root 1.04506 14.0831 -3.12846 11.2257 3.27658 4.59047
lowerback 32.9185 -0.425107 -2.69789
upperback 4.85594 -1.5104 -0.518954
thorax -11.4891 -0.580025 1.47693
lowerneck -15.417 -2.3961 -6.96884
upperneck -15.4887 -1.77329 5.84696
head -2.33906 -0.584319 3.11979
rclavicle -8.44835e-015 1.98785e-015
rhumerus -37.3281 5.70368 -75.5624
rradius 67.2039
rwrist 6.3914
rhand -42.8696 0.49944
rfingers 7.12502
rthumb -15.7328 -28.8811
lclavicle -8.44835e-015 1.98785e-015
lhumerus -43.1713 -21.9432 81.7507
lradius 67.2836
lwrist 20.1341
lhand -32.6711 20.7507
lfingers 7.12502
lthumb -5.89667 50.6487
rfemur -66.3164 -12.228 13.5571
rtibia 100.509
rfoot -35.6994 -4.22517
rtoes -14.5666
lfemur -62.7305 1.56557 -26.4751
ltibia 94.9089
lfoot -36.1848 0.203461
ltoes -7.80701
118
root 1.03443 13.9826 -3.12082 11.4086 3.39544 4.55852
lowerback 33.1289 -0.426469 -2.63942
upperback 4.8768 -1.4901 -0.471086
thorax -11.5514 -0.570736 1.49071
lowerneck -15.2748 -2.35276 -7.02231
upperneck -16.0174 -1.70036 5.86415
head -2.55361 -0.54185 3.15043
rclavicle 1.33186e-014 6.95746e-015
rhumerus -38.5026 5.62565 -75.4421
rradius 67.8287
rwrist 5.52749
rhand -42.9313 0.419971
rfingers 7.12502
rthumb -15.7922 -28.9558
lclavicle 1.33186e-014 6.95746e-015
lhumerus -44.5031 -21.8966 82.1006
lradius 68.2294
lwrist 20.0308
lhand -33.2568 20.0141
lfingers 7.12502
lthumb -6.46208 49.8955
rfemur -67.2536 -12.6967 13.7067
rtibia 101.688
rfoot -35.6063 -4.06523
rtoes -15.5744
lfemur -63.6711 1.64442 -26.4289
ltibia 96.1492
lfoot -36.1894 -0.12079
ltoes -7.86429
